ffmpeg started on 2026-01-18 at 19:50:48
Report written to "C:\Dev\OSPanel\domains\Java-AT\modules\ffmpeg\FFMetrics\reports\psnr_report-6.txt"
Log level: 32
Command line:
ffmpeg -hide_banner -nostdin -r 24000/1001 -i "F:\\Convert\\files\\[DC] Make Heroine ga Oosugiru - 07_Telegram_HEVC(150).mkv" -r 24000/1001 -i "F:\\Convert\\files\\[DC] Make Heroine ga Oosugiru - 07_Telegram.mp4" -lavfi "[0:v]settb=AVTB,setpts=PTS-STARTPTS,format=pix_fmts=yuv420p10le,fps=24000/1001,scale=1920:1080:flags=lanczos:param0=3:out_range=limited:out_color_matrix=bt709:out_chroma_loc=left,setsar=1/1,setdar=(1920/1080)*(1/1),colorspace=format=yuv420p10:range=tv:primaries=bt709:trc=bt709:space=bt709:fast=0[main];[1:v]settb=AVTB,setpts=PTS-STARTPTS,format=pix_fmts=yuv420p,fps=24000/1001,scale=1920:1080:flags=lanczos:param0=3:out_range=limited:out_color_matrix=bt709:out_chroma_loc=left,setsar=1.000,setdar=1.778,colorspace=format=yuv420p:range=tv:primaries=bt709:trc=bt709:space=bt709:fast=0[ref];[main][ref]psnr=eof_action=endall:stats_file='C\\:/Dev/OSPanel/domains/Java-AT/modules/ffmpeg/FFMetrics/logs/psnr_logfile-6.txt'" -f null -
Input #0, matroska,webm, from 'F:\Convert\files\[DC] Make Heroine ga Oosugiru - 07_Telegram_HEVC(150).mkv':
  Metadata:
    COMPATIBLE_BRANDS: isomiso2avc1mp41
    MAJOR_BRAND     : isom
    MINOR_VERSION   : 512
    ENCODER         : Lavf61.7.100
  Duration: 00:24:06.79, start: -0.021000, bitrate: 978 kb/s
  Stream #0:0: Video: hevc (Main 10), yuv420p10le(tv, bt709, progressive), 1920x1080 [SAR 1:1 DAR 16:9], 23.98 fps, 23.98 tbr, 1k tbn (default)
      Metadata:
        HANDLER_NAME    : VideoHandler
        VENDOR_ID       : [0][0][0][0]
        ENCODER         : Lavc61.19.100 libx265
        BPS             : 781133
        DURATION        : 00:24:06.569708333
        NUMBER_OF_FRAMES: 34683
        NUMBER_OF_BYTES : 141245362
        _STATISTICS_WRITING_APP: mkvpropedit v94.0 ('Initiate') 64-bit
        _STATISTICS_WRITING_DATE_UTC: 2026-01-17 16:10:18
        _STATISTICS_TAGS: BPS DURATION NUMBER_OF_FRAMES NUMBER_OF_BYTES
  Stream #0:1: Audio: aac (LC), 48000 Hz, stereo, fltp (default)
      Metadata:
        HANDLER_NAME    : SoundHandler
        VENDOR_ID       : [0][0][0][0]
        ENCODER         : Lavc61.19.100 aac
        BPS             : 193194
        DURATION        : 00:24:06.784000000
        NUMBER_OF_FRAMES: 67819
        NUMBER_OF_BYTES : 34938755
        _STATISTICS_WRITING_APP: mkvpropedit v94.0 ('Initiate') 64-bit
        _STATISTICS_WRITING_DATE_UTC: 2026-01-17 16:10:18
        _STATISTICS_TAGS: BPS DURATION NUMBER_OF_FRAMES NUMBER_OF_BYTES
Input #1, mov,mp4,m4a,3gp,3g2,mj2, from 'F:\Convert\files\[DC] Make Heroine ga Oosugiru - 07_Telegram.mp4':
  Metadata:
    major_brand     : isom
    minor_version   : 512
    compatible_brands: isomiso2avc1mp41
    encoder         : Lavf60.16.100
  Duration: 00:24:06.74, start: 0.000000, bitrate: 3764 kb/s
  Stream #1:0[0x1](und): Video: h264 (High) (avc1 / 0x31637661), yuv420p(tv, bt709, progressive), 1920x1080 [SAR 1:1 DAR 16:9], 3616 kb/s, 23.98 fps, 23.98 tbr, 24k tbn (default)
      Metadata:
        handler_name    : VideoHandler
        vendor_id       : [0][0][0][0]
        encoder         : Lavc60.31.102 h264_qsv
  Stream #1:1[0x2](und): Audio: aac (HE-AACv2) (mp4a / 0x6134706D), 48000 Hz, stereo, fltp, 144 kb/s (default)
      Metadata:
        handler_name    : SoundHandler
        vendor_id       : [0][0][0][0]
Stream mapping:
  Stream #0:0 (hevc) -> settb:default
  Stream #1:0 (h264) -> settb:default
  psnr:default -> Stream #0:0 (wrapped_avframe)
  Stream #0:1 -> #0:1 (aac (native) -> pcm_s16le (native))
Output #0, null, to 'pipe:':
  Metadata:
    COMPATIBLE_BRANDS: isomiso2avc1mp41
    MAJOR_BRAND     : isom
    MINOR_VERSION   : 512
    encoder         : Lavf61.7.100
  Stream #0:0: Video: wrapped_avframe, yuv420p10le(tv, bt709, progressive), 1920x1080 [SAR 1:1 DAR 16:9], q=2-31, 200 kb/s, 23.98 fps, 23.98 tbn
      Metadata:
        encoder         : Lavc61.19.100 wrapped_avframe
  Stream #0:1: Audio: pcm_s16le, 48000 Hz, stereo, s16, 1536 kb/s (default)
      Metadata:
        HANDLER_NAME    : SoundHandler
        VENDOR_ID       : [0][0][0][0]
        _STATISTICS_TAGS: BPS DURATION NUMBER_OF_FRAMES NUMBER_OF_BYTES
        BPS             : 193194
        DURATION        : 00:24:06.784000000
        NUMBER_OF_FRAMES: 67819
        NUMBER_OF_BYTES : 34938755
        _STATISTICS_WRITING_APP: mkvpropedit v94.0 ('Initiate') 64-bit
        _STATISTICS_WRITING_DATE_UTC: 2026-01-17 16:10:18
        encoder         : Lavc61.19.100 pcm_s16le
frame=  125 fps=0.0 q=-0.0 size=N/A time=00:00:05.21 bitrate=N/A speed=10.3x    frame=  332 fps=326 q=-0.0 size=N/A time=00:00:13.84 bitrate=N/A speed=13.6x    frame=  540 fps=353 q=-0.0 size=N/A time=00:00:22.52 bitrate=N/A speed=14.7x    frame=  746 fps=363 q=-0.0 size=N/A time=00:00:31.11 bitrate=N/A speed=15.1x    frame=  928 fps=361 q=-0.0 size=N/A time=00:00:38.70 bitrate=N/A speed=15.1x    frame= 1086 fps=353 q=-0.0 size=N/A time=00:00:45.29 bitrate=N/A speed=14.7x    frame= 1256 fps=348 q=-0.0 size=N/A time=00:00:52.38 bitrate=N/A speed=14.5x    frame= 1422 fps=345 q=-0.0 size=N/A time=00:00:59.30 bitrate=N/A speed=14.4x    frame= 1566 fps=338 q=-0.0 size=N/A time=00:01:05.31 bitrate=N/A speed=14.1x    frame= 1736 fps=337 q=-0.0 size=N/A time=00:01:12.40 bitrate=N/A speed=  14x    frame= 1899 fps=335 q=-0.0 size=N/A time=00:01:19.20 bitrate=N/A speed=  14x    frame= 2057 fps=333 q=-0.0 size=N/A time=00:01:25.79 bitrate=N/A speed=13.9x    frame= 2180 fps=326 q=-0.0 size=N/A time=00:01:30.92 bitrate=N/A speed=13.6x    frame= 2348 fps=325 q=-0.0 size=N/A time=00:01:37.93 bitrate=N/A speed=13.6x    frame= 2477 fps=321 q=-0.0 size=N/A time=00:01:43.31 bitrate=N/A speed=13.4x    frame= 2628 fps=319 q=-0.0 size=N/A time=00:01:49.60 bitrate=N/A speed=13.3x    frame= 2816 fps=321 q=-0.0 size=N/A time=00:01:57.45 bitrate=N/A speed=13.4x    frame= 2991 fps=322 q=-0.0 size=N/A time=00:02:04.74 bitrate=N/A speed=13.4x    frame= 3196 fps=327 q=-0.0 size=N/A time=00:02:13.29 bitrate=N/A speed=13.6x    frame= 3402 fps=330 q=-0.0 size=N/A time=00:02:21.89 bitrate=N/A speed=13.8x    frame= 3608 fps=333 q=-0.0 size=N/A time=00:02:30.48 bitrate=N/A speed=13.9x    frame= 3818 fps=337 q=-0.0 size=N/A time=00:02:39.24 bitrate=N/A speed=  14x    frame= 4022 fps=339 q=-0.0 size=N/A time=00:02:47.75 bitrate=N/A speed=14.2x    frame= 4226 fps=342 q=-0.0 size=N/A time=00:02:56.25 bitrate=N/A speed=14.3x    frame= 4435 fps=344 q=-0.0 size=N/A time=00:03:04.97 bitrate=N/A speed=14.4x    frame= 4639 fps=346 q=-0.0 size=N/A time=00:03:13.48 bitrate=N/A speed=14.4x    frame= 4837 fps=348 q=-0.0 size=N/A time=00:03:21.74 bitrate=N/A speed=14.5x    frame= 5031 fps=349 q=-0.0 size=N/A time=00:03:29.83 bitrate=N/A speed=14.5x    frame= 5226 fps=350 q=-0.0 size=N/A time=00:03:37.96 bitrate=N/A speed=14.6x    frame= 5425 fps=351 q=-0.0 size=N/A time=00:03:46.26 bitrate=N/A speed=14.6x    frame= 5630 fps=352 q=-0.0 size=N/A time=00:03:54.81 bitrate=N/A speed=14.7x    frame= 5836 fps=354 q=-0.0 size=N/A time=00:04:03.40 bitrate=N/A speed=14.8x    frame= 6037 fps=355 q=-0.0 size=N/A time=00:04:11.79 bitrate=N/A speed=14.8x    frame= 6233 fps=356 q=-0.0 size=N/A time=00:04:19.96 bitrate=N/A speed=14.8x    frame= 6438 fps=357 q=-0.0 size=N/A time=00:04:28.51 bitrate=N/A speed=14.9x    frame= 6645 fps=358 q=-0.0 size=N/A time=00:04:37.15 bitrate=N/A speed=14.9x    frame= 6844 fps=359 q=-0.0 size=N/A time=00:04:45.45 bitrate=N/A speed=  15x    frame= 7044 fps=360 q=-0.0 size=N/A time=00:04:53.79 bitrate=N/A speed=  15x    frame= 7241 fps=360 q=-0.0 size=N/A time=00:05:02.01 bitrate=N/A speed=  15x    frame= 7436 fps=361 q=-0.0 size=N/A time=00:05:10.14 bitrate=N/A speed=  15x    frame= 7628 fps=361 q=-0.0 size=N/A time=00:05:18.15 bitrate=N/A speed=15.1x    frame= 7818 fps=361 q=-0.0 size=N/A time=00:05:26.07 bitrate=N/A speed=15.1x    frame= 8020 fps=362 q=-0.0 size=N/A time=00:05:34.50 bitrate=N/A speed=15.1x    frame= 8213 fps=362 q=-0.0 size=N/A time=00:05:42.55 bitrate=N/A speed=15.1x    frame= 8415 fps=363 q=-0.0 size=N/A time=00:05:50.97 bitrate=N/A speed=15.1x    frame= 8618 fps=363 q=-0.0 size=N/A time=00:05:59.44 bitrate=N/A speed=15.2x    frame= 8805 fps=364 q=-0.0 size=N/A time=00:06:07.24 bitrate=N/A speed=15.2x    frame= 9012 fps=364 q=-0.0 size=N/A time=00:06:15.87 bitrate=N/A speed=15.2x    frame= 9219 fps=365 q=-0.0 size=N/A time=00:06:24.50 bitrate=N/A speed=15.2x    frame= 9419 fps=365 q=-0.0 size=N/A time=00:06:32.85 bitrate=N/A speed=15.2x    frame= 9614 fps=366 q=-0.0 size=N/A time=00:06:40.98 bitrate=N/A speed=15.2x    frame= 9817 fps=366 q=-0.0 size=N/A time=00:06:49.45 bitrate=N/A speed=15.3x    frame=10022 fps=367 q=-0.0 size=N/A time=00:06:58.00 bitrate=N/A speed=15.3x    frame=10216 fps=367 q=-0.0 size=N/A time=00:07:06.09 bitrate=N/A speed=15.3x    frame=10414 fps=367 q=-0.0 size=N/A time=00:07:14.35 bitrate=N/A speed=15.3x    frame=10614 fps=367 q=-0.0 size=N/A time=00:07:22.69 bitrate=N/A speed=15.3x    frame=10813 fps=368 q=-0.0 size=N/A time=00:07:30.99 bitrate=N/A speed=15.3x    frame=11006 fps=368 q=-0.0 size=N/A time=00:07:39.04 bitrate=N/A speed=15.3x    frame=11195 fps=368 q=-0.0 size=N/A time=00:07:46.92 bitrate=N/A speed=15.3x    frame=11387 fps=368 q=-0.0 size=N/A time=00:07:54.93 bitrate=N/A speed=15.4x    frame=11590 fps=368 q=-0.0 size=N/A time=00:08:03.39 bitrate=N/A speed=15.4x    frame=11783 fps=369 q=-0.0 size=N/A time=00:08:11.44 bitrate=N/A speed=15.4x    frame=11976 fps=369 q=-0.0 size=N/A time=00:08:19.49 bitrate=N/A speed=15.4x    frame=12184 fps=369 q=-0.0 size=N/A time=00:08:28.17 bitrate=N/A speed=15.4x    frame=12382 fps=369 q=-0.0 size=N/A time=00:08:36.43 bitrate=N/A speed=15.4x    frame=12586 fps=370 q=-0.0 size=N/A time=00:08:44.94 bitrate=N/A speed=15.4x    frame=12788 fps=370 q=-0.0 size=N/A time=00:08:53.36 bitrate=N/A speed=15.4x    frame=12991 fps=370 q=-0.0 size=N/A time=00:09:01.83 bitrate=N/A speed=15.4x    frame=13190 fps=371 q=-0.0 size=N/A time=00:09:10.13 bitrate=N/A speed=15.5x    frame=13385 fps=371 q=-0.0 size=N/A time=00:09:18.26 bitrate=N/A speed=15.5x    frame=13585 fps=371 q=-0.0 size=N/A time=00:09:26.60 bitrate=N/A speed=15.5x    frame=13789 fps=371 q=-0.0 size=N/A time=00:09:35.11 bitrate=N/A speed=15.5x    frame=13984 fps=371 q=-0.0 size=N/A time=00:09:43.24 bitrate=N/A speed=15.5x    frame=14169 fps=371 q=-0.0 size=N/A time=00:09:50.96 bitrate=N/A speed=15.5x    frame=14371 fps=371 q=-0.0 size=N/A time=00:09:59.39 bitrate=N/A speed=15.5x    frame=14565 fps=371 q=-0.0 size=N/A time=00:10:07.48 bitrate=N/A speed=15.5x    frame=14758 fps=372 q=-0.0 size=N/A time=00:10:15.53 bitrate=N/A speed=15.5x    frame=14961 fps=372 q=-0.0 size=N/A time=00:10:23.99 bitrate=N/A speed=15.5x    frame=15140 fps=371 q=-0.0 size=N/A time=00:10:31.46 bitrate=N/A speed=15.5x    frame=15329 fps=371 q=-0.0 size=N/A time=00:10:39.34 bitrate=N/A speed=15.5x    frame=15523 fps=372 q=-0.0 size=N/A time=00:10:47.43 bitrate=N/A speed=15.5x    frame=15731 fps=372 q=-0.0 size=N/A time=00:10:56.11 bitrate=N/A speed=15.5x    frame=15929 fps=372 q=-0.0 size=N/A time=00:11:04.37 bitrate=N/A speed=15.5x    frame=16131 fps=372 q=-0.0 size=N/A time=00:11:12.79 bitrate=N/A speed=15.5x    frame=16331 fps=372 q=-0.0 size=N/A time=00:11:21.13 bitrate=N/A speed=15.5x    frame=16523 fps=372 q=-0.0 size=N/A time=00:11:29.14 bitrate=N/A speed=15.5x    frame=16729 fps=373 q=-0.0 size=N/A time=00:11:37.73 bitrate=N/A speed=15.5x    frame=16932 fps=373 q=-0.0 size=N/A time=00:11:46.20 bitrate=N/A speed=15.6x    frame=17130 fps=373 q=-0.0 size=N/A time=00:11:54.46 bitrate=N/A speed=15.6x    frame=17337 fps=373 q=-0.0 size=N/A time=00:12:03.09 bitrate=N/A speed=15.6x    frame=17538 fps=374 q=-0.0 size=N/A time=00:12:11.48 bitrate=N/A speed=15.6x    frame=17730 fps=374 q=-0.0 size=N/A time=00:12:19.48 bitrate=N/A speed=15.6x    frame=17927 fps=374 q=-0.0 size=N/A time=00:12:27.70 bitrate=N/A speed=15.6x    frame=18129 fps=374 q=-0.0 size=N/A time=00:12:36.13 bitrate=N/A speed=15.6x    frame=18314 fps=374 q=-0.0 size=N/A time=00:12:43.84 bitrate=N/A speed=15.6x    frame=18514 fps=374 q=-0.0 size=N/A time=00:12:52.18 bitrate=N/A speed=15.6x    frame=18704 fps=374 q=-0.0 size=N/A time=00:13:00.11 bitrate=N/A speed=15.6x    frame=18910 fps=374 q=-0.0 size=N/A time=00:13:08.70 bitrate=N/A speed=15.6x    frame=19122 fps=374 q=-0.0 size=N/A time=00:13:17.54 bitrate=N/A speed=15.6x    frame=19310 fps=374 q=-0.0 size=N/A time=00:13:25.38 bitrate=N/A speed=15.6x    frame=19509 fps=374 q=-0.0 size=N/A time=00:13:33.68 bitrate=N/A speed=15.6x    frame=19712 fps=375 q=-0.0 size=N/A time=00:13:42.15 bitrate=N/A speed=15.6x    frame=19929 fps=375 q=-0.0 size=N/A time=00:13:51.20 bitrate=N/A speed=15.6x    frame=20129 fps=375 q=-0.0 size=N/A time=00:13:59.54 bitrate=N/A speed=15.6x    frame=20330 fps=375 q=-0.0 size=N/A time=00:14:07.93 bitrate=N/A speed=15.7x    frame=20523 fps=375 q=-0.0 size=N/A time=00:14:15.98 bitrate=N/A speed=15.7x    frame=20711 fps=375 q=-0.0 size=N/A time=00:14:23.82 bitrate=N/A speed=15.6x    frame=20918 fps=375 q=-0.0 size=N/A time=00:14:32.45 bitrate=N/A speed=15.7x    frame=21119 fps=376 q=-0.0 size=N/A time=00:14:40.83 bitrate=N/A speed=15.7x    frame=21322 fps=376 q=-0.0 size=N/A time=00:14:49.30 bitrate=N/A speed=15.7x    frame=21520 fps=376 q=-0.0 size=N/A time=00:14:57.56 bitrate=N/A speed=15.7x    frame=21728 fps=376 q=-0.0 size=N/A time=00:15:06.23 bitrate=N/A speed=15.7x    frame=21928 fps=376 q=-0.0 size=N/A time=00:15:14.58 bitrate=N/A speed=15.7x    frame=22131 fps=376 q=-0.0 size=N/A time=00:15:23.04 bitrate=N/A speed=15.7x    frame=22344 fps=377 q=-0.0 size=N/A time=00:15:31.93 bitrate=N/A speed=15.7x    frame=22542 fps=377 q=-0.0 size=N/A time=00:15:40.18 bitrate=N/A speed=15.7x    frame=22742 fps=377 q=-0.0 size=N/A time=00:15:48.53 bitrate=N/A speed=15.7x    frame=22941 fps=377 q=-0.0 size=N/A time=00:15:56.83 bitrate=N/A speed=15.7x    frame=23149 fps=377 q=-0.0 size=N/A time=00:16:05.50 bitrate=N/A speed=15.7x    frame=23353 fps=377 q=-0.0 size=N/A time=00:16:14.01 bitrate=N/A speed=15.7x    frame=23556 fps=377 q=-0.0 size=N/A time=00:16:22.48 bitrate=N/A speed=15.7x    frame=23765 fps=378 q=-0.0 size=N/A time=00:16:31.19 bitrate=N/A speed=15.7x    frame=23962 fps=378 q=-0.0 size=N/A time=00:16:39.41 bitrate=N/A speed=15.8x    frame=24159 fps=378 q=-0.0 size=N/A time=00:16:47.63 bitrate=N/A speed=15.8x    frame=24356 fps=378 q=-0.0 size=N/A time=00:16:55.84 bitrate=N/A speed=15.8x    frame=24571 fps=378 q=-0.0 size=N/A time=00:17:04.81 bitrate=N/A speed=15.8x    frame=24768 fps=378 q=-0.0 size=N/A time=00:17:13.03 bitrate=N/A speed=15.8x    frame=24967 fps=378 q=-0.0 size=N/A time=00:17:21.33 bitrate=N/A speed=15.8x    frame=25175 fps=378 q=-0.0 size=N/A time=00:17:30.00 bitrate=N/A speed=15.8x    frame=25368 fps=378 q=-0.0 size=N/A time=00:17:38.05 bitrate=N/A speed=15.8x    frame=25573 fps=378 q=-0.0 size=N/A time=00:17:46.60 bitrate=N/A speed=15.8x    frame=25766 fps=378 q=-0.0 size=N/A time=00:17:54.65 bitrate=N/A speed=15.8x    frame=25972 fps=379 q=-0.0 size=N/A time=00:18:03.24 bitrate=N/A speed=15.8x    frame=26171 fps=379 q=-0.0 size=N/A time=00:18:11.54 bitrate=N/A speed=15.8x    frame=26381 fps=379 q=-0.0 size=N/A time=00:18:20.30 bitrate=N/A speed=15.8x    frame=26575 fps=379 q=-0.0 size=N/A time=00:18:28.39 bitrate=N/A speed=15.8x    frame=26774 fps=379 q=-0.0 size=N/A time=00:18:36.69 bitrate=N/A speed=15.8x    frame=26967 fps=379 q=-0.0 size=N/A time=00:18:44.74 bitrate=N/A speed=15.8x    frame=27148 fps=379 q=-0.0 size=N/A time=00:18:52.29 bitrate=N/A speed=15.8x    frame=27339 fps=379 q=-0.0 size=N/A time=00:19:00.26 bitrate=N/A speed=15.8x    frame=27530 fps=379 q=-0.0 size=N/A time=00:19:08.23 bitrate=N/A speed=15.8x    frame=27734 fps=379 q=-0.0 size=N/A time=00:19:16.73 bitrate=N/A speed=15.8x    frame=27927 fps=379 q=-0.0 size=N/A time=00:19:24.78 bitrate=N/A speed=15.8x    frame=28118 fps=379 q=-0.0 size=N/A time=00:19:32.75 bitrate=N/A speed=15.8x    frame=28317 fps=379 q=-0.0 size=N/A time=00:19:41.05 bitrate=N/A speed=15.8x    frame=28519 fps=379 q=-0.0 size=N/A time=00:19:49.47 bitrate=N/A speed=15.8x    frame=28711 fps=379 q=-0.0 size=N/A time=00:19:57.48 bitrate=N/A speed=15.8x    frame=28893 fps=378 q=-0.0 size=N/A time=00:20:05.07 bitrate=N/A speed=15.8x    frame=29067 fps=378 q=-0.0 size=N/A time=00:20:12.33 bitrate=N/A speed=15.8x    frame=29248 fps=378 q=-0.0 size=N/A time=00:20:19.88 bitrate=N/A speed=15.8x    frame=29439 fps=378 q=-0.0 size=N/A time=00:20:27.85 bitrate=N/A speed=15.8x    frame=29622 fps=378 q=-0.0 size=N/A time=00:20:35.48 bitrate=N/A speed=15.8x    frame=29805 fps=378 q=-0.0 size=N/A time=00:20:43.11 bitrate=N/A speed=15.8x    frame=29977 fps=377 q=-0.0 size=N/A time=00:20:50.29 bitrate=N/A speed=15.7x    frame=30152 fps=377 q=-0.0 size=N/A time=00:20:57.58 bitrate=N/A speed=15.7x    frame=30354 fps=377 q=-0.0 size=N/A time=00:21:06.01 bitrate=N/A speed=15.7x    frame=30560 fps=377 q=-0.0 size=N/A time=00:21:14.60 bitrate=N/A speed=15.7x    frame=30753 fps=377 q=-0.0 size=N/A time=00:21:22.65 bitrate=N/A speed=15.7x    frame=30959 fps=378 q=-0.0 size=N/A time=00:21:31.24 bitrate=N/A speed=15.7x    frame=31163 fps=378 q=-0.0 size=N/A time=00:21:39.75 bitrate=N/A speed=15.7x    frame=31358 fps=378 q=-0.0 size=N/A time=00:21:47.88 bitrate=N/A speed=15.8x    frame=31546 fps=378 q=-0.0 size=N/A time=00:21:55.73 bitrate=N/A speed=15.7x    frame=31747 fps=378 q=-0.0 size=N/A time=00:22:04.11 bitrate=N/A speed=15.7x    frame=31931 fps=377 q=-0.0 size=N/A time=00:22:11.78 bitrate=N/A speed=15.7x    frame=32127 fps=378 q=-0.0 size=N/A time=00:22:19.96 bitrate=N/A speed=15.7x    frame=32329 fps=378 q=-0.0 size=N/A time=00:22:28.38 bitrate=N/A speed=15.8x    frame=32526 fps=378 q=-0.0 size=N/A time=00:22:36.60 bitrate=N/A speed=15.7x    frame=32692 fps=377 q=-0.0 size=N/A time=00:22:43.52 bitrate=N/A speed=15.7x    frame=32848 fps=377 q=-0.0 size=N/A time=00:22:50.03 bitrate=N/A speed=15.7x    frame=33049 fps=377 q=-0.0 size=N/A time=00:22:58.41 bitrate=N/A speed=15.7x    frame=33237 fps=377 q=-0.0 size=N/A time=00:23:06.25 bitrate=N/A speed=15.7x    frame=33409 fps=377 q=-0.0 size=N/A time=00:23:13.43 bitrate=N/A speed=15.7x    frame=33568 fps=376 q=-0.0 size=N/A time=00:23:20.06 bitrate=N/A speed=15.7x    frame=33725 fps=376 q=-0.0 size=N/A time=00:23:26.61 bitrate=N/A speed=15.7x    frame=33849 fps=375 q=-0.0 size=N/A time=00:23:31.78 bitrate=N/A speed=15.6x    frame=34004 fps=375 q=-0.0 size=N/A time=00:23:38.25 bitrate=N/A speed=15.6x    frame=34167 fps=374 q=-0.0 size=N/A time=00:23:45.04 bitrate=N/A speed=15.6x    frame=34319 fps=374 q=-0.0 size=N/A time=00:23:51.38 bitrate=N/A speed=15.6x    frame=34454 fps=373 q=-0.0 size=N/A time=00:23:57.01 bitrate=N/A speed=15.6x    frame=34632 fps=373 q=-0.0 size=N/A time=00:24:04.44 bitrate=N/A speed=15.6x    [Parsed_psnr_16 @ 0000023f79236240] PSNR y:48.958020 u:50.340254 v:50.389595 average:49.378283 min:38.024673 max:inf
[out#0/null @ 0000023f6bd73a00] video:14903KiB audio:271276KiB subtitle:0KiB other streams:0KiB global headers:0KiB muxing overhead: unknown
frame=34683 fps=373 q=-0.0 Lsize=N/A time=00:24:06.57 bitrate=N/A speed=15.6x    
